<?xml version="1.0" encoding="UTF-8" standalone="no"?>
<!DOCTYPE svg PUBLIC "-//W3C//DTD SVG 1.1//EN" "http://www.w3.org/Graphics/SVG/1.1/DTD/svg11.dtd">
<svg xmlns="http://www.w3.org/2000/svg" version="1.1" viewBox="0.00 0.00 1448.00 1448.00">
<g stroke-width="2.00" fill="none" stroke-linecap="butt">
<path stroke="#85518a" vector-effect="non-scaling-stroke" d="
  M 966.50 415.49
  C 963.68 414.49 960.99 416.82 958.56 417.99
  A 1.53 1.53 0.0 0 1 956.50 417.25
  C 954.92 413.78 952.48 409.26 948.58 407.93
  Q 944.62 406.58 942.89 409.53
  C 940.26 414.02 944.79 417.44 947.09 420.30
  A 3.02 3.01 60.7 0 1 945.77 425.03
  Q 936.12 428.49 928.86 435.59
  C 922.92 441.40 929.85 442.67 930.86 446.93
  A 1.71 1.70 0.9 0 1 928.76 448.96
  Q 926.05 448.25 923.45 449.36
  A 1.02 1.00 -5.2 0 0 922.88 450.03
  C 921.61 455.03 924.14 456.77 926.22 460.63
  A 2.56 2.56 0.0 0 1 922.68 464.06
  L 916.80 460.63
  A 0.83 0.83 0.0 0 0 915.81 460.75
  C 909.45 466.78 919.69 474.71 918.52 482.28
  A 1.16 1.15 78.4 0 1 918.00 483.08
  C 912.94 486.33 910.34 482.98 908.92 478.33
  Q 907.04 472.13 905.18 465.89
  C 904.61 463.96 903.51 463.16 901.65 462.77
  Q 901.15 462.66 900.70 462.90
  Q 896.60 465.09 898.01 470.29
  C 899.55 475.96 902.17 481.21 901.69 486.35
  A 2.02 2.01 7.5 0 1 899.34 488.15
  Q 896.03 487.57 893.53 485.07
  C 889.43 480.98 887.19 485.06 887.87 489.31
  A 0.93 0.91 68.4 0 1 887.48 490.23
  Q 885.67 491.48 883.53 491.99
  Q 883.07 492.10 882.70 492.38
  Q 879.47 494.80 875.55 495.60
  A 0.74 0.73 -19.0 0 1 874.75 495.22
  L 873.00 491.76
  A 1.84 1.84 0.0 0 0 870.19 491.17
  L 864.17 496.09
  Q 863.80 496.39 863.41 496.13
  Q 862.59 495.58 861.70 495.47"
/>
<path stroke="#78518c" vector-effect="non-scaling-stroke" d="
  M 863.93 478.44
  L 874.06 480.33
  A 0.74 0.73 83.8 0 0 874.87 479.32
  Q 872.88 474.59 871.13 469.93
  C 869.95 466.77 865.29 460.69 862.51 466.74
  Q 861.43 469.09 859.53 470.54"
/>
<path stroke="#85518a" vector-effect="non-scaling-stroke" d="
  M 811.63 485.64
  Q 808.58 484.40 804.62 487.35
  C 796.77 493.20 791.12 499.35 787.00 507.76
  Q 786.41 508.96 787.60 510.74"
/>
<path stroke="#78518c" vector-effect="non-scaling-stroke" d="
  M 729.69 502.02
  Q 730.19 501.16 730.18 500.00
  Q 730.18 499.46 730.64 499.20
  C 737.13 495.55 743.17 491.98 743.61 485.02
  C 743.87 480.84 740.89 476.18 739.02 472.42
  A 1.71 1.70 66.1 0 1 739.92 470.08
  C 749.17 466.42 755.42 463.41 753.76 451.68
  Q 751.10 432.98 762.49 418.22
  C 764.33 415.82 769.50 410.61 768.69 407.61
  C 766.86 400.83 754.64 409.67 752.76 404.12
  Q 752.20 402.48 753.24 401.51
  Q 756.04 398.90 757.45 396.10
  A 2.11 2.10 -59.2 0 0 756.78 393.43
  C 747.45 386.85 736.76 385.13 726.17 389.33
  C 722.02 390.98 717.32 393.77 712.85 393.69
  C 706.43 393.58 699.27 389.63 693.86 394.11
  Q 682.58 403.44 669.29 413.08
  C 661.35 418.83 656.15 428.86 666.59 435.66
  C 670.34 438.10 673.85 439.87 675.08 444.26
  C 678.77 457.46 681.85 468.50 680.47 481.37
  Q 680.43 481.69 680.12 481.62
  Q 678.48 481.28 676.71 484.46"
/>
<path stroke="#85518a" vector-effect="non-scaling-stroke" d="
  M 649.93 496.14
  Q 647.79 487.72 644.32 477.69
  C 643.18 474.39 642.49 472.09 639.59 469.89
  C 631.85 464.02 627.67 459.44 623.02 450.97
  C 621.29 447.82 616.89 442.53 612.86 446.12
  C 608.56 449.95 604.00 455.78 604.39 461.47
  C 604.65 465.33 608.61 467.83 608.44 471.53
  Q 608.21 476.43 604.41 479.69
  A 1.07 1.06 27.7 0 1 603.60 479.94
  Q 598.01 479.29 597.51 474.18
  Q 596.51 463.96 599.06 450.75
  Q 599.37 449.12 600.11 448.02
  A 1.36 1.35 9.3 0 1 600.92 447.44
  C 603.54 446.80 608.71 445.41 609.39 442.77
  C 609.90 440.80 608.17 439.57 606.43 439.34
  C 600.08 438.48 595.86 445.57 594.35 450.67
  Q 592.29 457.62 589.69 464.42
  C 588.24 468.24 589.86 472.04 588.90 475.64
  C 587.96 479.16 585.15 482.77 580.97 482.03
  A 1.65 1.64 70.8 0 1 580.13 481.62
  Q 574.02 476.04 565.30 473.78
  C 562.20 472.97 559.34 475.53 556.18 476.19
  A 0.99 0.99 0.0 0 1 555.28 475.90
  L 551.35 471.65
  A 1.28 1.23 -14.8 0 0 550.65 471.26
  L 540.37 469.19
  A 1.19 1.18 -62.5 0 1 539.75 467.21
  L 542.88 463.95
  A 0.83 0.82 -34.6 0 0 543.05 463.07
  L 542.13 460.78
  Q 541.92 460.27 542.28 459.84
  Q 548.76 452.02 547.23 440.86
  Q 546.84 437.98 544.57 437.39
  A 1.22 1.22 0.0 0 0 543.36 437.74
  L 538.65 442.80
  Q 536.40 445.22 534.05 442.88
  C 531.41 440.26 526.00 433.54 522.03 433.76
  C 517.73 433.99 513.33 437.00 513.31 441.67
  Q 513.30 443.08 512.18 443.43
  Q 505.49 445.51 498.76 446.01
  A 1.70 1.67 -27.4 0 1 497.62 445.66
  L 485.86 436.31
  Q 485.47 436.00 485.02 436.21
  Q 483.83 436.80 484.01 435.46
  A 0.42 0.42 0.0 0 0 483.54 434.98
  L 483.04 435.05
  Q 482.58 435.12 482.56 435.59
  Q 482.55 436.31 482.25 436.76"
/>
<path stroke="#995386" vector-effect="non-scaling-stroke" d="
  M 642.06 504.45
  Q 642.02 504.86 641.45 504.54
  Q 640.53 504.00 640.74 504.77
  Q 640.82 505.05 640.63 505.25
  Q 640.26 505.62 640.45 506.11
  C 642.46 511.48 643.79 518.70 636.74 520.96
  C 635.31 521.42 633.36 521.08 632.72 519.73
  C 628.31 510.46 625.66 507.28 615.86 504.14
  A 0.76 0.76 0.0 0 1 615.57 502.87
  Q 619.95 498.71 625.34 496.44
  C 627.87 495.38 632.70 491.90 631.68 488.56
  Q 629.88 482.67 625.51 476.72
  C 623.32 473.74 617.61 468.55 614.98 474.52
  C 612.55 480.03 614.12 482.65 608.56 486.82
  Q 595.64 496.51 586.10 502.99
  C 578.77 507.96 566.50 515.68 569.65 525.60
  C 570.61 528.64 574.97 530.88 577.53 532.73
  C 587.85 540.12 591.04 548.59 594.15 560.71
  C 595.20 564.84 598.72 563.24 599.51 559.99
  C 600.65 555.26 601.60 549.95 604.35 545.86
  C 606.81 542.20 606.24 539.26 606.07 535.48
  C 605.81 529.79 608.19 524.59 611.13 519.90
  C 616.12 511.94 624.75 518.76 627.58 524.32
  C 629.15 527.41 628.25 531.58 628.78 534.99
  C 629.65 540.53 637.00 534.91 639.26 533.56
  A 2.13 2.13 0.0 0 1 642.48 535.31
  C 642.61 538.57 641.89 542.07 642.77 545.14
  Q 644.13 549.81 647.16 552.84
  C 649.75 555.43 652.19 557.17 652.94 560.68
  C 656.64 577.94 630.73 568.77 623.97 576.25
  C 620.60 580.00 625.22 584.97 628.22 588.47
  C 631.99 592.86 632.86 598.05 625.58 599.21
  C 619.88 600.12 615.35 600.41 612.25 606.07
  C 610.07 610.05 608.79 613.67 604.69 616.66
  Q 604.29 616.95 604.16 617.43
  Q 604.02 617.94 603.56 618.31
  Q 603.11 618.69 603.68 618.85
  Q 609.54 620.52 614.87 623.38
  Q 615.28 623.60 615.74 623.55
  C 620.19 623.02 624.83 624.11 628.86 624.23
  Q 632.36 624.34 635.83 624.94
  Q 636.29 625.02 636.76 624.93
  L 640.99 624.07
  Q 641.50 623.97 641.92 623.65
  Q 642.74 623.04 643.75 623.57
  Q 644.22 623.81 644.74 623.68
  C 646.51 623.23 648.25 624.01 649.51 624.11
  Q 660.89 625.09 671.82 625.89
  A 0.71 0.71 0.0 0 1 672.23 627.15
  L 670.33 628.74
  A 0.19 0.19 0.0 0 0 670.56 629.03
  L 671.75 628.12
  A 0.18 0.18 0.0 0 1 671.98 628.39
  L 671.69 628.68
  Q 671.50 628.88 671.75 628.98
  Q 671.99 629.08 672.08 629.29"
/>
<path stroke="#ae5681" vector-effect="non-scaling-stroke" d="
  M 966.46 616.25
  L 966.30 583.38
  Q 966.30 583.31 966.24 583.31
  Q 966.21 583.31 966.16 583.31
  Q 966.00 583.31 966.00 583.50
  L 966.00 616.00
  Q 966.00 616.19 965.90 616.27
  Q 965.79 616.36 965.68 616.40
  Q 965.55 616.46 965.55 616.32
  L 965.18 605.16
  Q 965.16 604.53 964.56 604.71
  L 962.02 605.48
  A 0.65 0.63 63.3 0 1 961.32 605.24
  L 960.24 603.74
  Q 959.96 603.34 959.48 603.33
  Q 948.95 603.08 938.44 603.46
  C 935.81 603.56 933.09 604.25 930.36 604.55
  A 0.58 0.53 20.8 0 0 930.11 604.65
  L 927.08 606.73
  A 0.88 0.88 0.0 0 1 926.31 606.83
  L 920.50 604.83
  A 0.82 0.80 36.3 0 0 919.78 604.93
  L 915.20 608.05
  A 2.45 2.45 0.0 0 1 912.98 608.33
  C 907.32 606.28 900.35 605.75 894.53 606.09
  Q 890.77 606.31 888.15 608.26"
/>
<path stroke="#995386" vector-effect="non-scaling-stroke" d="
  M 888.15 608.26
  Q 886.25 605.82 885.69 602.02
  A 1.53 1.51 -33.0 0 1 885.92 600.98
  Q 888.28 597.33 889.12 593.10
  Q 889.21 592.63 888.94 592.24
  C 886.24 588.46 881.33 587.56 878.71 591.91
  C 876.31 595.91 878.81 601.73 880.82 605.87"
/>
<path stroke="#ae5681" vector-effect="non-scaling-stroke" d="
  M 880.82 605.87
  Q 880.15 606.58 879.63 606.09
  Q 879.25 605.73 879.24 606.26
  Q 879.23 607.04 879.75 607.73
  A 0.61 0.60 42.1 0 1 879.79 608.41
  L 879.50 608.91
  Q 879.28 609.28 879.25 608.85
  Q 879.24 608.67 879.27 608.48
  Q 879.37 607.77 879.06 608.41
  Q 878.76 609.01 878.95 609.42
  Q 879.21 609.96 878.62 609.85
  Q 874.83 609.12 872.12 606.42
  Q 871.77 606.06 871.27 606.04
  Q 868.40 605.94 865.56 605.53
  Q 865.17 605.48 864.93 605.62
  Q 864.61 605.82 864.39 606.22
  Q 864.20 606.58 863.92 606.29
  L 863.65 606.02
  Q 863.28 605.65 863.05 606.12
  L 862.74 606.78
  Q 862.50 607.27 862.50 606.72
  L 862.50 606.27
  A 0.13 0.13 0.0 0 0 862.24 606.24
  Q 862.19 606.45 862.28 606.91"
/>
<path stroke="#995386" vector-effect="non-scaling-stroke" d="
  M 862.28 606.91
  C 860.36 601.64 848.81 594.74 844.12 592.62
  A 2.46 2.44 38.8 0 0 841.68 592.87
  Q 834.17 598.31 828.80 607.94"
/>
<path stroke="#c25a7c" vector-effect="non-scaling-stroke" d="
  M 926.09 796.52
  Q 926.00 796.38 925.92 796.28
  Q 925.67 795.99 925.47 796.31
  Q 924.35 798.11 922.25 798.68
  Q 921.71 798.82 921.24 798.53
  Q 918.82 797.06 916.29 798.45
  Q 915.85 798.69 915.37 798.55
  C 911.60 797.50 907.88 797.98 904.33 796.53
  C 899.80 794.68 895.98 795.77 891.67 794.47
  Q 891.56 794.43 891.67 794.39
  Q 891.80 794.35 891.91 794.27
  A 0.10 0.09 27.1 0 0 891.85 794.10
  L 889.41 794.10
  Q 888.80 794.10 888.97 793.50
  C 890.34 788.77 896.59 782.72 891.73 778.39
  A 2.21 2.20 34.2 0 0 888.30 779.04
  C 884.54 786.45 877.41 788.66 875.05 796.73
  A 0.82 0.81 19.4 0 1 873.95 797.25
  C 870.13 795.62 863.13 794.55 862.24 789.54
  Q 862.14 789.01 862.58 788.68
  C 865.92 786.17 868.29 782.29 866.97 778.00
  Q 862.12 762.25 868.73 747.00
  Q 868.85 746.73 868.77 746.53
  Q 868.59 746.06 868.32 746.48
  Q 868.13 746.76 867.91 747.04
  A 0.12 0.12 0.0 0 1 867.70 746.95
  L 867.75 746.54
  Q 867.79 746.31 867.58 746.41
  Q 862.84 748.73 859.90 744.77
  Q 859.46 744.18 860.07 743.75
  L 861.90 742.49
  A 0.59 0.58 50.5 0 0 861.98 741.60
  L 861.48 741.11
  A 0.78 0.77 -42.2 0 0 860.43 741.06
  C 857.15 743.74 853.37 742.66 849.57 742.30
  Q 849.08 742.26 848.75 741.89
  Q 847.83 740.89 846.55 741.09
  Q 846.38 741.11 846.33 741.27
  Q 846.29 741.38 846.25 741.52
  Q 846.13 742.00 845.66 741.83
  Q 842.68 740.74 839.93 742.40
  Q 838.85 743.05 838.37 741.95
  Q 838.16 741.47 837.64 741.44
  C 832.18 741.08 826.74 739.98 821.47 739.99
  Q 814.09 740.01 806.71 740.01
  C 803.86 740.01 801.89 738.64 799.31 737.70
  C 795.08 736.16 789.56 736.39 785.02 736.25
  A 1.29 1.28 24.2 0 0 784.09 736.60
  C 781.73 738.87 779.64 743.59 782.48 746.53
  C 785.00 749.14 788.31 751.66 790.05 754.59
  C 796.31 765.13 792.57 774.29 787.94 784.80
  C 787.41 786.00 787.24 788.11 787.91 789.05
  A 2.24 2.23 53.8 0 1 787.44 792.14
  C 783.85 794.86 778.45 794.34 774.15 795.03
  C 759.70 797.34 745.77 794.57 730.38 795.34
  Q 729.18 795.40 727.13 795.18
  C 724.43 794.88 720.72 795.52 719.13 795.54
  Q 703.92 795.73 689.06 795.06
  A 0.78 0.78 0.0 0 1 688.32 794.18
  L 691.18 772.50
  A 1.16 1.14 74.8 0 1 691.61 771.74
  C 694.26 769.68 697.81 767.75 699.54 765.42
  C 704.73 758.40 695.65 750.52 689.24 749.01
  Q 673.98 745.40 658.72 741.91
  Q 655.35 741.14 656.05 738.33
  Q 657.27 733.38 654.60 730.18
  Q 648.69 723.10 639.16 720.32"
/>
<path stroke="#ae5681" vector-effect="non-scaling-stroke" d="
  M 707.61 648.95
  Q 708.78 648.94 709.53 647.39
  Q 709.60 647.25 709.75 647.25
  Q 709.88 647.25 710.03 647.25
  A 0.24 0.24 0.0 0 1 710.20 647.66
  Q 706.08 651.84 702.09 656.14
  Q 701.98 656.26 701.96 656.38
  Q 701.94 656.57 702.08 656.69
  A 0.21 0.20 43.8 0 0 702.35 656.69
  L 705.61 653.68
  Q 705.80 653.51 705.98 653.69
  L 706.25 653.96
  Q 706.46 654.17 706.67 653.96
  L 707.20 653.43
  Q 707.55 653.08 707.66 653.56
  Q 708.17 655.73 710.46 656.28
  Q 710.89 656.39 710.98 656.82
  L 711.15 657.73
  Q 711.27 658.35 711.90 658.36
  L 717.47 658.47
  A 0.59 0.58 81.5 0 1 718.01 658.87
  Q 718.57 660.58 719.83 661.94
  Q 720.80 663.00 721.59 661.80
  Q 722.53 660.39 724.17 660.18
  Q 724.66 660.12 724.96 659.74
  C 731.42 651.85 739.71 643.82 743.91 634.47
  A 3.27 3.24 -83.8 0 1 746.21 632.61
  C 758.31 630.05 770.87 624.15 783.74 626.24
  A 1.12 1.11 79.7 0 1 784.50 626.77
  C 786.96 631.05 787.32 638.47 792.35 640.56
  Q 792.74 640.72 793.11 640.52
  Q 793.90 640.11 794.59 640.58
  Q 795.00 640.87 795.18 641.33
  Q 795.70 642.68 796.77 642.73"
/>
<path stroke="#ae5681" vector-effect="non-scaling-stroke" d="
  M 841.40 645.86
  Q 843.02 644.81 844.41 645.06
  Q 844.90 645.15 845.32 644.90
  C 849.27 642.55 853.89 639.88 849.98 634.50
  Q 845.73 628.67 836.88 632.56"
/>
<path stroke="#a15683" vector-effect="non-scaling-stroke" d="
  M 831.04 614.88
  Q 835.41 613.84 839.66 611.62
  C 845.29 608.67 849.14 609.96 854.97 611.03
  C 858.53 611.69 861.97 610.98 862.28 606.91"
/>
<path stroke="#a15683" vector-effect="non-scaling-stroke" d="
  M 880.82 605.87
  C 883.40 610.92 883.61 614.30 885.01 619.50
  C 887.73 629.64 901.07 624.62 893.03 614.37
  Q 890.78 611.51 888.15 608.26"
/>
<path stroke="#ae5681" vector-effect="non-scaling-stroke" d="
  M 771.73 601.90
  Q 764.81 607.77 762.32 612.06
  C 759.23 617.40 756.56 623.76 750.45 626.22
  Q 742.88 629.28 737.06 623.85
  A 0.95 0.93 -28.7 0 0 736.20 623.61
  Q 734.44 624.01 733.79 621.90"
/>
<path stroke="#78518c" vector-effect="non-scaling-stroke" d="
  M 502.36 435.71
  C 501.72 438.81 504.56 440.37 507.16 439.79
  Q 507.68 439.67 507.98 439.23
  C 510.67 435.25 511.50 432.42 516.70 429.95
  C 519.56 428.58 523.90 427.13 525.24 424.36
  C 527.93 418.82 521.29 414.60 516.75 416.73
  Q 505.14 422.17 502.36 435.71"
/>
<path stroke="#78518c" vector-effect="non-scaling-stroke" d="
  M 865.71 459.13
  C 868.83 459.75 870.35 458.56 871.78 455.73
  Q 875.06 449.28 880.69 444.78
  C 884.35 441.85 890.51 435.89 884.57 431.61
  Q 884.14 431.30 883.66 431.54
  Q 882.43 432.14 881.03 433.52
  Q 868.90 445.47 864.98 450.21
  Q 861.40 454.56 864.90 458.66
  Q 865.22 459.04 865.71 459.13"
/>
<path stroke="#995386" vector-effect="non-scaling-stroke" d="
  M 906.6852 603.8965
  A 6.34 3.69 107.2 0 0 912.0850 598.9312
  A 6.34 3.69 107.2 0 0 910.4348 591.7835
  A 6.34 3.69 107.2 0 0 905.0350 596.7488
  A 6.34 3.69 107.2 0 0 906.6852 603.8965"
/>
<path stroke="#ae5681" vector-effect="non-scaling-stroke" d="
  M 491.71 644.87
  Q 490.78 644.08 490.13 644.22
  Q 487.97 644.68 488.39 646.85
  C 489.28 651.37 493.87 667.60 500.22 665.83
  Q 500.69 665.70 500.86 665.25
  C 502.75 660.05 495.48 650.61 492.75 646.15
  Q 492.23 645.31 491.71 644.87"
/>
<path stroke="#ae5681" vector-effect="non-scaling-stroke" d="
  M 575.7931 683.8114
  A 5.76 2.70 2.8 0 0 570.1719 680.8332
  A 5.76 2.70 2.8 0 0 564.2869 683.2486
  A 5.76 2.70 2.8 0 0 569.9081 686.2268
  A 5.76 2.70 2.8 0 0 575.7931 683.8114"
/>
</g>
<path fill="#644e90" d="
  M 966.50 415.49
  C 963.68 414.49 960.99 416.82 958.56 417.99
  A 1.53 1.53 0.0 0 1 956.50 417.25
  C 954.92 413.78 952.48 409.26 948.58 407.93
  Q 944.62 406.58 942.89 409.53
  C 940.26 414.02 944.79 417.44 947.09 420.30
  A 3.02 3.01 60.7 0 1 945.77 425.03
  Q 936.12 428.49 928.86 435.59
  C 922.92 441.40 929.85 442.67 930.86 446.93
  A 1.71 1.70 0.9 0 1 928.76 448.96
  Q 926.05 448.25 923.45 449.36
  A 1.02 1.00 -5.2 0 0 922.88 450.03
  C 921.61 455.03 924.14 456.77 926.22 460.63
  A 2.56 2.56 0.0 0 1 922.68 464.06
  L 916.80 460.63
  A 0.83 0.83 0.0 0 0 915.81 460.75
  C 909.45 466.78 919.69 474.71 918.52 482.28
  A 1.16 1.15 78.4 0 1 918.00 483.08
  C 912.94 486.33 910.34 482.98 908.92 478.33
  Q 907.04 472.13 905.18 465.89
  C 904.61 463.96 903.51 463.16 901.65 462.77
  Q 901.15 462.66 900.70 462.90
  Q 896.60 465.09 898.01 470.29
  C 899.55 475.96 902.17 481.21 901.69 486.35
  A 2.02 2.01 7.5 0 1 899.34 488.15
  Q 896.03 487.57 893.53 485.07
  C 889.43 480.98 887.19 485.06 887.87 489.31
  A 0.93 0.91 68.4 0 1 887.48 490.23
  Q 885.67 491.48 883.53 491.99
  Q 883.07 492.10 882.70 492.38
  Q 879.47 494.80 875.55 495.60
  A 0.74 0.73 -19.0 0 1 874.75 495.22
  L 873.00 491.76
  A 1.84 1.84 0.0 0 0 870.19 491.17
  L 864.17 496.09
  Q 863.80 496.39 863.41 496.13
  Q 862.59 495.58 861.70 495.47
  Q 866.18 487.85 863.93 478.44
  L 874.06 480.33
  A 0.74 0.73 83.8 0 0 874.87 479.32
  Q 872.88 474.59 871.13 469.93
  C 869.95 466.77 865.29 460.69 862.51 466.74
  Q 861.43 469.09 859.53 470.54
  C 849.46 459.40 834.96 460.92 825.07 471.58
  Q 818.34 478.84 811.63 485.64
  Q 808.58 484.40 804.62 487.35
  C 796.77 493.20 791.12 499.35 787.00 507.76
  Q 786.41 508.96 787.60 510.74
  L 780.31 518.01
  A 0.97 0.94 -58.1 0 1 779.34 518.25
  L 729.69 502.02
  Q 730.19 501.16 730.18 500.00
  Q 730.18 499.46 730.64 499.20
  C 737.13 495.55 743.17 491.98 743.61 485.02
  C 743.87 480.84 740.89 476.18 739.02 472.42
  A 1.71 1.70 66.1 0 1 739.92 470.08
  C 749.17 466.42 755.42 463.41 753.76 451.68
  Q 751.10 432.98 762.49 418.22
  C 764.33 415.82 769.50 410.61 768.69 407.61
  C 766.86 400.83 754.64 409.67 752.76 404.12
  Q 752.20 402.48 753.24 401.51
  Q 756.04 398.90 757.45 396.10
  A 2.11 2.10 -59.2 0 0 756.78 393.43
  C 747.45 386.85 736.76 385.13 726.17 389.33
  C 722.02 390.98 717.32 393.77 712.85 393.69
  C 706.43 393.58 699.27 389.63 693.86 394.11
  Q 682.58 403.44 669.29 413.08
  C 661.35 418.83 656.15 428.86 666.59 435.66
  C 670.34 438.10 673.85 439.87 675.08 444.26
  C 678.77 457.46 681.85 468.50 680.47 481.37
  Q 680.43 481.69 680.12 481.62
  Q 678.48 481.28 676.71 484.46
  L 666.60 481.09
  A 2.05 2.04 -58.4 0 0 664.52 481.59
  L 649.93 496.14
  Q 647.79 487.72 644.32 477.69
  C 643.18 474.39 642.49 472.09 639.59 469.89
  C 631.85 464.02 627.67 459.44 623.02 450.97
  C 621.29 447.82 616.89 442.53 612.86 446.12
  C 608.56 449.95 604.00 455.78 604.39 461.47
  C 604.65 465.33 608.61 467.83 608.44 471.53
  Q 608.21 476.43 604.41 479.69
  A 1.07 1.06 27.7 0 1 603.60 479.94
  Q 598.01 479.29 597.51 474.18
  Q 596.51 463.96 599.06 450.75
  Q 599.37 449.12 600.11 448.02
  A 1.36 1.35 9.3 0 1 600.92 447.44
  C 603.54 446.80 608.71 445.41 609.39 442.77
  C 609.90 440.80 608.17 439.57 606.43 439.34
  C 600.08 438.48 595.86 445.57 594.35 450.67
  Q 592.29 457.62 589.69 464.42
  C 588.24 468.24 589.86 472.04 588.90 475.64
  C 587.96 479.16 585.15 482.77 580.97 482.03
  A 1.65 1.64 70.8 0 1 580.13 481.62
  Q 574.02 476.04 565.30 473.78
  C 562.20 472.97 559.34 475.53 556.18 476.19
  A 0.99 0.99 0.0 0 1 555.28 475.90
  L 551.35 471.65
  A 1.28 1.23 -14.8 0 0 550.65 471.26
  L 540.37 469.19
  A 1.19 1.18 -62.5 0 1 539.75 467.21
  L 542.88 463.95
  A 0.83 0.82 -34.6 0 0 543.05 463.07
  L 542.13 460.78
  Q 541.92 460.27 542.28 459.84
  Q 548.76 452.02 547.23 440.86
  Q 546.84 437.98 544.57 437.39
  A 1.22 1.22 0.0 0 0 543.36 437.74
  L 538.65 442.80
  Q 536.40 445.22 534.05 442.88
  C 531.41 440.26 526.00 433.54 522.03 433.76
  C 517.73 433.99 513.33 437.00 513.31 441.67
  Q 513.30 443.08 512.18 443.43
  Q 505.49 445.51 498.76 446.01
  A 1.70 1.67 -27.4 0 1 497.62 445.66
  L 485.86 436.31
  Q 485.47 436.00 485.02 436.21
  Q 483.83 436.80 484.01 435.46
  A 0.42 0.42 0.0 0 0 483.54 434.98
  L 483.04 435.05
  Q 482.58 435.12 482.56 435.59
  Q 482.55 436.31 482.25 436.76
  C 482.26 422.78 481.03 405.62 483.54 393.33
  C 488.74 367.94 511.35 346.11 538.06 344.58
  C 541.81 344.37 545.72 344.01 549.40 344.01
  Q 722.94 343.99 896.48 344.00
  C 910.17 344.00 922.05 345.20 934.25 352.59
  Q 968.43 373.25 966.50 415.49
  Z
  M 502.36 435.71
  C 501.72 438.81 504.56 440.37 507.16 439.79
  Q 507.68 439.67 507.98 439.23
  C 510.67 435.25 511.50 432.42 516.70 429.95
  C 519.56 428.58 523.90 427.13 525.24 424.36
  C 527.93 418.82 521.29 414.60 516.75 416.73
  Q 505.14 422.17 502.36 435.71
  Z
  M 865.71 459.13
  C 868.83 459.75 870.35 458.56 871.78 455.73
  Q 875.06 449.28 880.69 444.78
  C 884.35 441.85 890.51 435.89 884.57 431.61
  Q 884.14 431.30 883.66 431.54
  Q 882.43 432.14 881.03 433.52
  Q 868.90 445.47 864.98 450.21
  Q 861.40 454.56 864.90 458.66
  Q 865.22 459.04 865.71 459.13
  Z"
/>
<path fill="#8c5388" d="
  M 729.69 502.02
  L 676.71 484.46
  Q 678.48 481.28 680.12 481.62
  Q 680.43 481.69 680.47 481.37
  C 681.85 468.50 678.77 457.46 675.08 444.26
  C 673.85 439.87 670.34 438.10 666.59 435.66
  C 656.15 428.86 661.35 418.83 669.29 413.08
  Q 682.58 403.44 693.86 394.11
  C 699.27 389.63 706.43 393.58 712.85 393.69
  C 717.32 393.77 722.02 390.98 726.17 389.33
  C 736.76 385.13 747.45 386.85 756.78 393.43
  A 2.11 2.10 -59.2 0 1 757.45 396.10
  Q 756.04 398.90 753.24 401.51
  Q 752.20 402.48 752.76 404.12
  C 754.64 409.67 766.86 400.83 768.69 407.61
  C 769.50 410.61 764.33 415.82 762.49 418.22
  Q 751.10 432.98 753.76 451.68
  C 755.42 463.41 749.17 466.42 739.92 470.08
  A 1.71 1.70 66.1 0 0 739.02 472.42
  C 740.89 476.18 743.87 480.84 743.61 485.02
  C 743.17 491.98 737.13 495.55 730.64 499.20
  Q 730.18 499.46 730.18 500.00
  Q 730.19 501.16 729.69 502.02
  Z"
/>
<path fill="#a55384" d="
  M 966.50 415.49
  L 966.46 616.25
  L 966.30 583.38
  Q 966.30 583.31 966.24 583.31
  Q 966.21 583.31 966.16 583.31
  Q 966.00 583.31 966.00 583.50
  L 966.00 616.00
  Q 966.00 616.19 965.90 616.27
  Q 965.79 616.36 965.68 616.40
  Q 965.55 616.46 965.55 616.32
  L 965.18 605.16
  Q 965.16 604.53 964.56 604.71
  L 962.02 605.48
  A 0.65 0.63 63.3 0 1 961.32 605.24
  L 960.24 603.74
  Q 959.96 603.34 959.48 603.33
  Q 948.95 603.08 938.44 603.46
  C 935.81 603.56 933.09 604.25 930.36 604.55
  A 0.58 0.53 20.8 0 0 930.11 604.65
  L 927.08 606.73
  A 0.88 0.88 0.0 0 1 926.31 606.83
  L 920.50 604.83
  A 0.82 0.80 36.3 0 0 919.78 604.93
  L 915.20 608.05
  A 2.45 2.45 0.0 0 1 912.98 608.33
  C 907.32 606.28 900.35 605.75 894.53 606.09
  Q 890.77 606.31 888.15 608.26
  Q 886.25 605.82 885.69 602.02
  A 1.53 1.51 -33.0 0 1 885.92 600.98
  Q 888.28 597.33 889.12 593.10
  Q 889.21 592.63 888.94 592.24
  C 886.24 588.46 881.33 587.56 878.71 591.91
  C 876.31 595.91 878.81 601.73 880.82 605.87
  Q 880.15 606.58 879.63 606.09
  Q 879.25 605.73 879.24 606.26
  Q 879.23 607.04 879.75 607.73
  A 0.61 0.60 42.1 0 1 879.79 608.41
  L 879.50 608.91
  Q 879.28 609.28 879.25 608.85
  Q 879.24 608.67 879.27 608.48
  Q 879.37 607.77 879.06 608.41
  Q 878.76 609.01 878.95 609.42
  Q 879.21 609.96 878.62 609.85
  Q 874.83 609.12 872.12 606.42
  Q 871.77 606.06 871.27 606.04
  Q 868.40 605.94 865.56 605.53
  Q 865.17 605.48 864.93 605.62
  Q 864.61 605.82 864.39 606.22
  Q 864.20 606.58 863.92 606.29
  L 863.65 606.02
  Q 863.28 605.65 863.05 606.12
  L 862.74 606.78
  Q 862.50 607.27 862.50 606.72
  L 862.50 606.27
  A 0.13 0.13 0.0 0 0 862.24 606.24
  Q 862.19 606.45 862.28 606.91
  C 860.36 601.64 848.81 594.74 844.12 592.62
  A 2.46 2.44 38.8 0 0 841.68 592.87
  Q 834.17 598.31 828.80 607.94
  Q 819.37 579.78 810.65 553.32
  Q 809.72 550.51 809.20 547.54
  A 1.01 1.01 0.0 0 1 809.47 546.66
  Q 811.84 544.24 814.24 541.99
  Q 837.06 520.56 859.49 498.74
  Q 860.34 497.91 861.70 495.47
  Q 862.59 495.58 863.41 496.13
  Q 863.80 496.39 864.17 496.09
  L 870.19 491.17
  A 1.84 1.84 0.0 0 1 873.00 491.76
  L 874.75 495.22
  A 0.74 0.73 -19.0 0 0 875.55 495.60
  Q 879.47 494.80 882.70 492.38
  Q 883.07 492.10 883.53 491.99
  Q 885.67 491.48 887.48 490.23
  A 0.93 0.91 68.4 0 0 887.87 489.31
  C 887.19 485.06 889.43 480.98 893.53 485.07
  Q 896.03 487.57 899.34 488.15
  A 2.02 2.01 7.5 0 0 901.69 486.35
  C 902.17 481.21 899.55 475.96 898.01 470.29
  Q 896.60 465.09 900.70 462.90
  Q 901.15 462.66 901.65 462.77
  C 903.51 463.16 904.61 463.96 905.18 465.89
  Q 907.04 472.13 908.92 478.33
  C 910.34 482.98 912.94 486.33 918.00 483.08
  A 1.16 1.15 78.4 0 0 918.52 482.28
  C 919.69 474.71 909.45 466.78 915.81 460.75
  A 0.83 0.83 0.0 0 1 916.80 460.63
  L 922.68 464.06
  A 2.56 2.56 0.0 0 0 926.22 460.63
  C 924.14 456.77 921.61 455.03 922.88 450.03
  A 1.02 1.00 -5.2 0 1 923.45 449.36
  Q 926.05 448.25 928.76 448.96
  A 1.71 1.70 0.9 0 0 930.86 446.93
  C 929.85 442.67 922.92 441.40 928.86 435.59
  Q 936.12 428.49 945.77 425.03
  A 3.02 3.01 60.7 0 0 947.09 420.30
  C 944.79 417.44 940.26 414.02 942.89 409.53
  Q 944.62 406.58 948.58 407.93
  C 952.48 409.26 954.92 413.78 956.50 417.25
  A 1.53 1.53 0.0 0 0 958.56 417.99
  C 960.99 416.82 963.68 414.49 966.50 415.49
  Z
  M 906.6852 603.8965
  A 6.34 3.69 107.2 0 0 912.0850 598.9312
  A 6.34 3.69 107.2 0 0 910.4348 591.7835
  A 6.34 3.69 107.2 0 0 905.0350 596.7488
  A 6.34 3.69 107.2 0 0 906.6852 603.8965
  Z"
/>
<path fill="#8c5388" d="
  M 507.16 439.79
  C 504.56 440.37 501.72 438.81 502.36 435.71
  Q 505.14 422.17 516.75 416.73
  C 521.29 414.60 527.93 418.82 525.24 424.36
  C 523.90 427.13 519.56 428.58 516.70 429.95
  C 511.50 432.42 510.67 435.25 507.98 439.23
  Q 507.68 439.67 507.16 439.79
  Z"
/>
<path fill="#8c5388" d="
  M 864.90 458.66
  Q 861.40 454.56 864.98 450.21
  Q 868.90 445.47 881.03 433.52
  Q 882.43 432.14 883.66 431.54
  Q 884.14 431.30 884.57 431.61
  C 890.51 435.89 884.35 441.85 880.69 444.78
  Q 875.06 449.28 871.78 455.73
  C 870.35 458.56 868.83 459.75 865.71 459.13
  Q 865.22 459.04 864.90 458.66
  Z"
/>
<path fill="#a55384" d="
  M 649.93 496.14
  L 641.91 503.83
  Q 641.71 504.02 641.76 504.28
  Q 641.82 504.63 642.06 504.45
  Q 642.02 504.86 641.45 504.54
  Q 640.53 504.00 640.74 504.77
  Q 640.82 505.05 640.63 505.25
  Q 640.26 505.62 640.45 506.11
  C 642.46 511.48 643.79 518.70 636.74 520.96
  C 635.31 521.42 633.36 521.08 632.72 519.73
  C 628.31 510.46 625.66 507.28 615.86 504.14
  A 0.76 0.76 0.0 0 1 615.57 502.87
  Q 619.95 498.71 625.34 496.44
  C 627.87 495.38 632.70 491.90 631.68 488.56
  Q 629.88 482.67 625.51 476.72
  C 623.32 473.74 617.61 468.55 614.98 474.52
  C 612.55 480.03 614.12 482.65 608.56 486.82
  Q 595.64 496.51 586.10 502.99
  C 578.77 507.96 566.50 515.68 569.65 525.60
  C 570.61 528.64 574.97 530.88 577.53 532.73
  C 587.85 540.12 591.04 548.59 594.15 560.71
  C 595.20 564.84 598.72 563.24 599.51 559.99
  C 600.65 555.26 601.60 549.95 604.35 545.86
  C 606.81 542.20 606.24 539.26 606.07 535.48
  C 605.81 529.79 608.19 524.59 611.13 519.90
  C 616.12 511.94 624.75 518.76 627.58 524.32
  C 629.15 527.41 628.25 531.58 628.78 534.99
  C 629.65 540.53 637.00 534.91 639.26 533.56
  A 2.13 2.13 0.0 0 1 642.48 535.31
  C 642.61 538.57 641.89 542.07 642.77 545.14
  Q 644.13 549.81 647.16 552.84
  C 649.75 555.43 652.19 557.17 652.94 560.68
  C 656.64 577.94 630.73 568.77 623.97 576.25
  C 620.60 580.00 625.22 584.97 628.22 588.47
  C 631.99 592.86 632.86 598.05 625.58 599.21
  C 619.88 600.12 615.35 600.41 612.25 606.07
  C 610.07 610.05 608.79 613.67 604.69 616.66
  Q 604.29 616.95 604.16 617.43
  Q 604.02 617.94 603.56 618.31
  Q 603.11 618.69 603.68 618.85
  Q 609.54 620.52 614.87 623.38
  Q 615.28 623.60 615.74 623.55
  C 620.19 623.02 624.83 624.11 628.86 624.23
  Q 632.36 624.34 635.83 624.94
  Q 636.29 625.02 636.76 624.93
  L 640.99 624.07
  Q 641.50 623.97 641.92 623.65
  Q 642.74 623.04 643.75 623.57
  Q 644.22 623.81 644.74 623.68
  C 646.51 623.23 648.25 624.01 649.51 624.11
  Q 660.89 625.09 671.82 625.89
  A 0.71 0.71 0.0 0 1 672.23 627.15
  L 670.33 628.74
  A 0.19 0.19 0.0 0 0 670.56 629.03
  L 671.75 628.12
  A 0.18 0.18 0.0 0 1 671.98 628.39
  L 671.69 628.68
  Q 671.50 628.88 671.75 628.98
  Q 671.99 629.08 672.08 629.29
  Q 635.31 666.84 598.25 704.09
  Q 588.74 713.65 583.30 717.30
  C 545.59 742.65 492.15 721.04 483.48 676.18
  Q 482.24 669.79 482.25 656.25
  Q 482.25 546.49 482.25 436.76
  Q 482.55 436.31 482.56 435.59
  Q 482.58 435.12 483.04 435.05
  L 483.54 434.98
  A 0.42 0.42 0.0 0 1 484.01 435.46
  Q 483.83 436.80 485.02 436.21
  Q 485.47 436.00 485.86 436.31
  L 497.62 445.66
  A 1.70 1.67 -27.4 0 0 498.76 446.01
  Q 505.49 445.51 512.18 443.43
  Q 513.30 443.08 513.31 441.67
  C 513.33 437.00 517.73 433.99 522.03 433.76
  C 526.00 433.54 531.41 440.26 534.05 442.88
  Q 536.40 445.22 538.65 442.80
  L 543.36 437.74
  A 1.22 1.22 0.0 0 1 544.57 437.39
  Q 546.84 437.98 547.23 440.86
  Q 548.76 452.02 542.28 459.84
  Q 541.92 460.27 542.13 460.78
  L 543.05 463.07
  A 0.83 0.82 -34.6 0 1 542.88 463.95
  L 539.75 467.21
  A 1.19 1.18 -62.5 0 0 540.37 469.19
  L 550.65 471.26
  A 1.28 1.23 -14.8 0 1 551.35 471.65
  L 555.28 475.90
  A 0.99 0.99 0.0 0 0 556.18 476.19
  C 559.34 475.53 562.20 472.97 565.30 473.78
  Q 574.02 476.04 580.13 481.62
  A 1.65 1.64 70.8 0 0 580.97 482.03
  C 585.15 482.77 587.96 479.16 588.90 475.64
  C 589.86 472.04 588.24 468.24 589.69 464.42
  Q 592.29 457.62 594.35 450.67
  C 595.86 445.57 600.08 438.48 606.43 439.34
  C 608.17 439.57 609.90 440.80 609.39 442.77
  C 608.71 445.41 603.54 446.80 600.92 447.44
  A 1.36 1.35 9.3 0 0 600.11 448.02
  Q 599.37 449.12 599.06 450.75
  Q 596.51 463.96 597.51 474.18
  Q 598.01 479.29 603.60 479.94
  A 1.07 1.06 27.7 0 0 604.41 479.69
  Q 608.21 476.43 608.44 471.53
  C 608.61 467.83 604.65 465.33 604.39 461.47
  C 604.00 455.78 608.56 449.95 612.86 446.12
  C 616.89 442.53 621.29 447.82 623.02 450.97
  C 627.67 459.44 631.85 464.02 639.59 469.89
  C 642.49 472.09 643.18 474.39 644.32 477.69
  Q 647.79 487.72 649.93 496.14
  Z
  M 491.71 644.87
  Q 490.78 644.08 490.13 644.22
  Q 487.97 644.68 488.39 646.85
  C 489.28 651.37 493.87 667.60 500.22 665.83
  Q 500.69 665.70 500.86 665.25
  C 502.75 660.05 495.48 650.61 492.75 646.15
  Q 492.23 645.31 491.71 644.87
  Z
  M 575.7931 683.8114
  A 5.76 2.70 2.8 0 0 570.1719 680.8332
  A 5.76 2.70 2.8 0 0 564.2869 683.2486
  A 5.76 2.70 2.8 0 0 569.9081 686.2268
  A 5.76 2.70 2.8 0 0 575.7931 683.8114
  Z"
/>
<path fill="#8c5388" d="
  M 863.93 478.44
  Q 862.68 474.56 859.53 470.54
  Q 861.43 469.09 862.51 466.74
  C 865.29 460.69 869.95 466.77 871.13 469.93
  Q 872.88 474.59 874.87 479.32
  A 0.74 0.73 83.8 0 1 874.06 480.33
  L 863.93 478.44
  Z"
/>
<path fill="#8c5388" d="
  M 642.06 504.45
  L 736.90 562.42
  A 0.83 0.83 0.0 0 1 737.06 563.71
  L 672.08 629.29
  Q 671.99 629.08 671.75 628.98
  Q 671.50 628.88 671.69 628.68
  L 671.98 628.39
  A 0.18 0.18 0.0 0 0 671.75 628.12
  L 670.56 629.03
  A 0.19 0.19 0.0 0 1 670.33 628.74
  L 672.23 627.15
  A 0.71 0.71 0.0 0 0 671.82 625.89
  Q 660.89 625.09 649.51 624.11
  C 648.25 624.01 646.51 623.23 644.74 623.68
  Q 644.22 623.81 643.75 623.57
  Q 642.74 623.04 641.92 623.65
  Q 641.50 623.97 640.99 624.07
  L 636.76 624.93
  Q 636.29 625.02 635.83 624.94
  Q 632.36 624.34 628.86 624.23
  C 624.83 624.11 620.19 623.02 615.74 623.55
  Q 615.28 623.60 614.87 623.38
  Q 609.54 620.52 603.68 618.85
  Q 603.11 618.69 603.56 618.31
  Q 604.02 617.94 604.16 617.43
  Q 604.29 616.95 604.69 616.66
  C 608.79 613.67 610.07 610.05 612.25 606.07
  C 615.35 600.41 619.88 600.12 625.58 599.21
  C 632.86 598.05 631.99 592.86 628.22 588.47
  C 625.22 584.97 620.60 580.00 623.97 576.25
  C 630.73 568.77 656.64 577.94 652.94 560.68
  C 652.19 557.17 649.75 555.43 647.16 552.84
  Q 644.13 549.81 642.77 545.14
  C 641.89 542.07 642.61 538.57 642.48 535.31
  A 2.13 2.13 0.0 0 0 639.26 533.56
  C 637.00 534.91 629.65 540.53 628.78 534.99
  C 628.25 531.58 629.15 527.41 627.58 524.32
  C 624.75 518.76 616.12 511.94 611.13 519.90
  C 608.19 524.59 605.81 529.79 606.07 535.48
  C 606.24 539.26 606.81 542.20 604.35 545.86
  C 601.60 549.95 600.65 555.26 599.51 559.99
  C 598.72 563.24 595.20 564.84 594.15 560.71
  C 591.04 548.59 587.85 540.12 577.53 532.73
  C 574.97 530.88 570.61 528.64 569.65 525.60
  C 566.50 515.68 578.77 507.96 586.10 502.99
  Q 595.64 496.51 608.56 486.82
  C 614.12 482.65 612.55 480.03 614.98 474.52
  C 617.61 468.55 623.32 473.74 625.51 476.72
  Q 629.88 482.67 631.68 488.56
  C 632.70 491.90 627.87 495.38 625.34 496.44
  Q 619.95 498.71 615.57 502.87
  A 0.76 0.76 0.0 0 0 615.86 504.14
  C 625.66 507.28 628.31 510.46 632.72 519.73
  C 633.36 521.08 635.31 521.42 636.74 520.96
  C 643.79 518.70 642.46 511.48 640.45 506.11
  Q 640.26 505.62 640.63 505.25
  Q 640.82 505.05 640.74 504.77
  Q 640.53 504.00 641.45 504.54
  Q 642.02 504.86 642.06 504.45
  Z"
/>
<path fill="#a55384" d="
  M 811.63 485.64
  L 787.60 510.74
  Q 786.41 508.96 787.00 507.76
  C 791.12 499.35 796.77 493.20 804.62 487.35
  Q 808.58 484.40 811.63 485.64
  Z"
/>
<path fill="#b6597d" d="
  M 966.46 616.25
  Q 966.66 642.00 966.38 667.75
  C 965.87 713.83 951.52 758.17 926.09 796.52
  Q 926.00 796.38 925.92 796.28
  Q 925.67 795.99 925.47 796.31
  Q 924.35 798.11 922.25 798.68
  Q 921.71 798.82 921.24 798.53
  Q 918.82 797.06 916.29 798.45
  Q 915.85 798.69 915.37 798.55
  C 911.60 797.50 907.88 797.98 904.33 796.53
  C 899.80 794.68 895.98 795.77 891.67 794.47
  Q 891.56 794.43 891.67 794.39
  Q 891.80 794.35 891.91 794.27
  A 0.10 0.09 27.1 0 0 891.85 794.10
  L 889.41 794.10
  Q 888.80 794.10 888.97 793.50
  C 890.34 788.77 896.59 782.72 891.73 778.39
  A 2.21 2.20 34.2 0 0 888.30 779.04
  C 884.54 786.45 877.41 788.66 875.05 796.73
  A 0.82 0.81 19.4 0 1 873.95 797.25
  C 870.13 795.62 863.13 794.55 862.24 789.54
  Q 862.14 789.01 862.58 788.68
  C 865.92 786.17 868.29 782.29 866.97 778.00
  Q 862.12 762.25 868.73 747.00
  Q 868.85 746.73 868.77 746.53
  Q 868.59 746.06 868.32 746.48
  Q 868.13 746.76 867.91 747.04
  A 0.12 0.12 0.0 0 1 867.70 746.95
  L 867.75 746.54
  Q 867.79 746.31 867.58 746.41
  Q 862.84 748.73 859.90 744.77
  Q 859.46 744.18 860.07 743.75
  L 861.90 742.49
  A 0.59 0.58 50.5 0 0 861.98 741.60
  L 861.48 741.11
  A 0.78 0.77 -42.2 0 0 860.43 741.06
  C 857.15 743.74 853.37 742.66 849.57 742.30
  Q 849.08 742.26 848.75 741.89
  Q 847.83 740.89 846.55 741.09
  Q 846.38 741.11 846.33 741.27
  Q 846.29 741.38 846.25 741.52
  Q 846.13 742.00 845.66 741.83
  Q 842.68 740.74 839.93 742.40
  Q 838.85 743.05 838.37 741.95
  Q 838.16 741.47 837.64 741.44
  C 832.18 741.08 826.74 739.98 821.47 739.99
  Q 814.09 740.01 806.71 740.01
  C 803.86 740.01 801.89 738.64 799.31 737.70
  C 795.08 736.16 789.56 736.39 785.02 736.25
  A 1.29 1.28 24.2 0 0 784.09 736.60
  C 781.73 738.87 779.64 743.59 782.48 746.53
  C 785.00 749.14 788.31 751.66 790.05 754.59
  C 796.31 765.13 792.57 774.29 787.94 784.80
  C 787.41 786.00 787.24 788.11 787.91 789.05
  A 2.24 2.23 53.8 0 1 787.44 792.14
  C 783.85 794.86 778.45 794.34 774.15 795.03
  C 759.70 797.34 745.77 794.57 730.38 795.34
  Q 729.18 795.40 727.13 795.18
  C 724.43 794.88 720.72 795.52 719.13 795.54
  Q 703.92 795.73 689.06 795.06
  A 0.78 0.78 0.0 0 1 688.32 794.18
  L 691.18 772.50
  A 1.16 1.14 74.8 0 1 691.61 771.74
  C 694.26 769.68 697.81 767.75 699.54 765.42
  C 704.73 758.40 695.65 750.52 689.24 749.01
  Q 673.98 745.40 658.72 741.91
  Q 655.35 741.14 656.05 738.33
  Q 657.27 733.38 654.60 730.18
  Q 648.69 723.10 639.16 720.32
  L 707.61 648.95
  Q 708.78 648.94 709.53 647.39
  Q 709.60 647.25 709.75 647.25
  Q 709.88 647.25 710.03 647.25
  A 0.24 0.24 0.0 0 1 710.20 647.66
  Q 706.08 651.84 702.09 656.14
  Q 701.98 656.26 701.96 656.38
  Q 701.94 656.57 702.08 656.69
  A 0.21 0.20 43.8 0 0 702.35 656.69
  L 705.61 653.68
  Q 705.80 653.51 705.98 653.69
  L 706.25 653.96
  Q 706.46 654.17 706.67 653.96
  L 707.20 653.43
  Q 707.55 653.08 707.66 653.56
  Q 708.17 655.73 710.46 656.28
  Q 710.89 656.39 710.98 656.82
  L 711.15 657.73
  Q 711.27 658.35 711.90 658.36
  L 717.47 658.47
  A 0.59 0.58 81.5 0 1 718.01 658.87
  Q 718.57 660.58 719.83 661.94
  Q 720.80 663.00 721.59 661.80
  Q 722.53 660.39 724.17 660.18
  Q 724.66 660.12 724.96 659.74
  C 731.42 651.85 739.71 643.82 743.91 634.47
  A 3.27 3.24 -83.8 0 1 746.21 632.61
  C 758.31 630.05 770.87 624.15 783.74 626.24
  A 1.12 1.11 79.7 0 1 784.50 626.77
  C 786.96 631.05 787.32 638.47 792.35 640.56
  Q 792.74 640.72 793.11 640.52
  Q 793.90 640.11 794.59 640.58
  Q 795.00 640.87 795.18 641.33
  Q 795.70 642.68 796.77 642.73
  L 822.65 684.86
  A 0.91 0.90 51.8 0 0 824.06 685.03
  Q 834.24 674.97 844.54 664.51
  C 847.04 661.97 846.14 660.93 845.09 657.45
  Q 843.30 651.58 841.40 645.86
  Q 843.02 644.81 844.41 645.06
  Q 844.90 645.15 845.32 644.90
  C 849.27 642.55 853.89 639.88 849.98 634.50
  Q 845.73 628.67 836.88 632.56
  L 831.04 614.88
  Q 835.41 613.84 839.66 611.62
  C 845.29 608.67 849.14 609.96 854.97 611.03
  C 858.53 611.69 861.97 610.98 862.28 606.91
  Q 862.19 606.45 862.24 606.24
  A 0.13 0.13 0.0 0 1 862.50 606.27
  L 862.50 606.72
  Q 862.50 607.27 862.74 606.78
  L 863.05 606.12
  Q 863.28 605.65 863.65 606.02
  L 863.92 606.29
  Q 864.20 606.58 864.39 606.22
  Q 864.61 605.82 864.93 605.62
  Q 865.17 605.48 865.56 605.53
  Q 868.40 605.94 871.27 606.04
  Q 871.77 606.06 872.12 606.42
  Q 874.83 609.12 878.62 609.85
  Q 879.21 609.96 878.95 609.42
  Q 878.76 609.01 879.06 608.41
  Q 879.37 607.77 879.27 608.48
  Q 879.24 608.67 879.25 608.85
  Q 879.28 609.28 879.50 608.91
  L 879.79 608.41
  A 0.61 0.60 42.1 0 0 879.75 607.73
  Q 879.23 607.04 879.24 606.26
  Q 879.25 605.73 879.63 606.09
  Q 880.15 606.58 880.82 605.87
  C 883.40 610.92 883.61 614.30 885.01 619.50
  C 887.73 629.64 901.07 624.62 893.03 614.37
  Q 890.78 611.51 888.15 608.26
  Q 890.77 606.31 894.53 606.09
  C 900.35 605.75 907.32 606.28 912.98 608.33
  A 2.45 2.45 0.0 0 0 915.20 608.05
  L 919.78 604.93
  A 0.82 0.80 36.3 0 1 920.50 604.83
  L 926.31 606.83
  A 0.88 0.88 0.0 0 0 927.08 606.73
  L 930.11 604.65
  A 0.58 0.53 20.8 0 1 930.36 604.55
  C 933.09 604.25 935.81 603.56 938.44 603.46
  Q 948.95 603.08 959.48 603.33
  Q 959.96 603.34 960.24 603.74
  L 961.32 605.24
  A 0.65 0.63 63.3 0 0 962.02 605.48
  L 964.56 604.71
  Q 965.16 604.53 965.18 605.16
  L 965.55 616.32
  Q 965.55 616.46 965.68 616.40
  Q 965.79 616.36 965.90 616.27
  Q 966.00 616.19 966.00 616.00
  L 966.00 583.50
  Q 966.00 583.31 966.16 583.31
  Q 966.21 583.31 966.24 583.31
  Q 966.30 583.31 966.30 583.38
  L 966.46 616.25
  Z"
/>
<path fill="#8c5388" d="
  M 888.15 608.26
  Q 890.78 611.51 893.03 614.37
  C 901.07 624.62 887.73 629.64 885.01 619.50
  C 883.61 614.30 883.40 610.92 880.82 605.87
  C 878.81 601.73 876.31 595.91 878.71 591.91
  C 881.33 587.56 886.24 588.46 888.94 592.24
  Q 889.21 592.63 889.12 593.10
  Q 888.28 597.33 885.92 600.98
  A 1.53 1.51 -33.0 0 0 885.69 602.02
  Q 886.25 605.82 888.15 608.26
  Z"
/>
<path fill="#b6597d" d="
  M 771.73 601.90
  Q 764.81 607.77 762.32 612.06
  C 759.23 617.40 756.56 623.76 750.45 626.22
  Q 742.88 629.28 737.06 623.85
  A 0.95 0.93 -28.7 0 0 736.20 623.61
  Q 734.44 624.01 733.79 621.90
  L 763.03 591.29
  A 1.56 1.55 51.1 0 1 765.49 591.56
  L 771.73 601.90
  Z"
/>
<ellipse fill="#8c5388" cx="0.00" cy="0.00" transform="translate(908.56,597.84) rotate(107.2)" rx="6.34" ry="3.69"/>
<path fill="#8c5388" d="
  M 862.28 606.91
  C 861.97 610.98 858.53 611.69 854.97 611.03
  C 849.14 609.96 845.29 608.67 839.66 611.62
  Q 835.41 613.84 831.04 614.88
  L 828.80 607.94
  Q 834.17 598.31 841.68 592.87
  A 2.46 2.44 38.8 0 1 844.12 592.62
  C 848.81 594.74 860.36 601.64 862.28 606.91
  Z"
/>
<path fill="#a55384" d="
  M 771.73 601.90
  L 796.77 642.73
  Q 795.70 642.68 795.18 641.33
  Q 795.00 640.87 794.59 640.58
  Q 793.90 640.11 793.11 640.52
  Q 792.74 640.72 792.35 640.56
  C 787.32 638.47 786.96 631.05 784.50 626.77
  A 1.12 1.11 79.7 0 0 783.74 626.24
  C 770.87 624.15 758.31 630.05 746.21 632.61
  A 3.27 3.24 -83.8 0 0 743.91 634.47
  C 739.71 643.82 731.42 651.85 724.96 659.74
  Q 724.66 660.12 724.17 660.18
  Q 722.53 660.39 721.59 661.80
  Q 720.80 663.00 719.83 661.94
  Q 718.57 660.58 718.01 658.87
  A 0.59 0.58 81.5 0 0 717.47 658.47
  L 711.90 658.36
  Q 711.27 658.35 711.15 657.73
  L 710.98 656.82
  Q 710.89 656.39 710.46 656.28
  Q 708.17 655.73 707.66 653.56
  Q 707.55 653.08 707.20 653.43
  L 706.67 653.96
  Q 706.46 654.17 706.25 653.96
  L 705.98 653.69
  Q 705.80 653.51 705.61 653.68
  L 702.35 656.69
  A 0.21 0.20 43.8 0 1 702.08 656.69
  Q 701.94 656.57 701.96 656.38
  Q 701.98 656.26 702.09 656.14
  Q 706.08 651.84 710.20 647.66
  A 0.24 0.24 0.0 0 0 710.03 647.25
  Q 709.88 647.25 709.75 647.25
  Q 709.60 647.25 709.53 647.39
  Q 708.78 648.94 707.61 648.95
  L 733.79 621.90
  Q 734.44 624.01 736.20 623.61
  A 0.95 0.93 -28.7 0 1 737.06 623.85
  Q 742.88 629.28 750.45 626.22
  C 756.56 623.76 759.23 617.40 762.32 612.06
  Q 764.81 607.77 771.73 601.90
  Z"
/>
<path fill="#a55384" d="
  M 841.40 645.86
  L 836.88 632.56
  Q 845.73 628.67 849.98 634.50
  C 853.89 639.88 849.27 642.55 845.32 644.90
  Q 844.90 645.15 844.41 645.06
  Q 843.02 644.81 841.40 645.86
  Z"
/>
<path fill="#b6597d" d="
  M 492.75 646.15
  C 495.48 650.61 502.75 660.05 500.86 665.25
  Q 500.69 665.70 500.22 665.83
  C 493.87 667.60 489.28 651.37 488.39 646.85
  Q 487.97 644.68 490.13 644.22
  Q 490.78 644.08 491.71 644.87
  Q 492.23 645.31 492.75 646.15
  Z"
/>
<ellipse fill="#b6597d" cx="0.00" cy="0.00" transform="translate(570.04,683.53) rotate(2.8)" rx="5.76" ry="2.70"/>
<path fill="#cd5a7a" d="
  M 926.09 796.52
  C 879.36 866.55 795.69 909.99 711.25 904.00
  C 660.50 900.41 620.14 856.90 613.14 807.79
  C 608.61 776.03 618.41 744.73 639.16 720.32
  Q 648.69 723.10 654.60 730.18
  Q 657.27 733.38 656.05 738.33
  Q 655.35 741.14 658.72 741.91
  Q 673.98 745.40 689.24 749.01
  C 695.65 750.52 704.73 758.40 699.54 765.42
  C 697.81 767.75 694.26 769.68 691.61 771.74
  A 1.16 1.14 74.8 0 0 691.18 772.50
  L 688.32 794.18
  A 0.78 0.78 0.0 0 0 689.06 795.06
  Q 703.92 795.73 719.13 795.54
  C 720.72 795.52 724.43 794.88 727.13 795.18
  Q 729.18 795.40 730.38 795.34
  C 745.77 794.57 759.70 797.34 774.15 795.03
  C 778.45 794.34 783.85 794.86 787.44 792.14
  A 2.24 2.23 53.8 0 0 787.91 789.05
  C 787.24 788.11 787.41 786.00 787.94 784.80
  C 792.57 774.29 796.31 765.13 790.05 754.59
  C 788.31 751.66 785.00 749.14 782.48 746.53
  C 779.64 743.59 781.73 738.87 784.09 736.60
  A 1.29 1.28 24.2 0 1 785.02 736.25
  C 789.56 736.39 795.08 736.16 799.31 737.70
  C 801.89 738.64 803.86 740.01 806.71 740.01
  Q 814.09 740.01 821.47 739.99
  C 826.74 739.98 832.18 741.08 837.64 741.44
  Q 838.16 741.47 838.37 741.95
  Q 838.85 743.05 839.93 742.40
  Q 842.68 740.74 845.66 741.83
  Q 846.13 742.00 846.25 741.52
  Q 846.29 741.38 846.33 741.27
  Q 846.38 741.11 846.55 741.09
  Q 847.83 740.89 848.75 741.89
  Q 849.08 742.26 849.57 742.30
  C 853.37 742.66 857.15 743.74 860.43 741.06
  A 0.78 0.77 -42.2 0 1 861.48 741.11
  L 861.98 741.60
  A 0.59 0.58 50.5 0 1 861.90 742.49
  L 860.07 743.75
  Q 859.46 744.18 859.90 744.77
  Q 862.84 748.73 867.58 746.41
  Q 867.79 746.31 867.75 746.54
  L 867.70 746.95
  A 0.12 0.12 0.0 0 0 867.91 747.04
  Q 868.13 746.76 868.32 746.48
  Q 868.59 746.06 868.77 746.53
  Q 868.85 746.73 868.73 747.00
  Q 862.12 762.25 866.97 778.00
  C 868.29 782.29 865.92 786.17 862.58 788.68
  Q 862.14 789.01 862.24 789.54
  C 863.13 794.55 870.13 795.62 873.95 797.25
  A 0.82 0.81 19.4 0 0 875.05 796.73
  C 877.41 788.66 884.54 786.45 888.30 779.04
  A 2.21 2.20 34.2 0 1 891.73 778.39
  C 896.59 782.72 890.34 788.77 888.97 793.50
  Q 888.80 794.10 889.41 794.10
  L 891.85 794.10
  A 0.10 0.09 27.1 0 1 891.91 794.27
  Q 891.80 794.35 891.67 794.39
  Q 891.56 794.43 891.67 794.47
  C 895.98 795.77 899.80 794.68 904.33 796.53
  C 907.88 797.98 911.60 797.50 915.37 798.55
  Q 915.85 798.69 916.29 798.45
  Q 918.82 797.06 921.24 798.53
  Q 921.71 798.82 922.25 798.68
  Q 924.35 798.11 925.47 796.31
  Q 925.67 795.99 925.92 796.28
  Q 926.00 796.38 926.09 796.52
  Z"
/>
</svg>
